<?xml version="1.0" encoding="UTF-8" standalone="no"?>
<!DOCTYPE svg PUBLIC "-//W3C//DTD SVG 1.1//EN"
 "http://www.w3.org/Graphics/SVG/1.1/DTD/svg11.dtd">
<!-- Generated by graphviz version 15.0.0 (20260523.1842)
 -->
<!-- Title: AWS Serverless Data Lake ETL Pipeline Pages: 1 -->
<svg width="2566pt" height="858pt"
 viewBox="0.00 0.00 2566.00 858.00" xmlns="http://www.w3.org/2000/svg" xmlns:xlink="http://www.w3.org/1999/xlink">
<style>
  /* ── Background ── */
  .graph > polygon { fill: #0d1117; }

  /* ── Main edges: orange flowing dashes (data in motion) ── */
  g.edge path {
    stroke-dasharray: 12 6;
    animation: dataFlow 1.8s linear infinite;
  }

  /* ── Arrowheads pulse with the flow ── */
  g.edge polygon {
    animation: arrowPulse 1.8s ease-in-out infinite;
  }

  @keyframes dataFlow {
    0%   { stroke-dashoffset: 36; }
    100% { stroke-dashoffset: 0;  }
  }

  @keyframes arrowPulse {
    0%, 100% { opacity: 0.25; }
    60%      { opacity: 1.0;  }
  }

  /* ── Node icons: soft breathe glow ── */
  g.node image {
    animation: nodePulse 3s ease-in-out infinite alternate;
  }

  @keyframes nodePulse {
    from { opacity: 0.78; filter: drop-shadow(0 0 0px rgba(255,153,0,0));   }
    to   { opacity: 1.0;  filter: drop-shadow(0 0 8px rgba(255,153,0,0.5)); }
  }

  /* ── Node labels ── */
  g.node text { fill: #e6edf3; }

  /* ── Cluster boxes: gentle breathe ── */
  g.cluster polygon {
    fill: rgba(255,255,255,0.03);
    stroke: rgba(255,153,0,0.35);
    animation: clusterBreath 4s ease-in-out infinite alternate;
  }

  @keyframes clusterBreath {
    from { stroke-opacity: 0.25; }
    to   { stroke-opacity: 0.65; }
  }

  /* ── Cluster labels ── */
  g.cluster text { fill: #ff9900; font-weight: bold; }

  /* ── Edge labels ── */
  g.edge text { fill: #8b949e; }

  /* ── Graph title ── */
  text.label { fill: #e6edf3; }
</style>

<g id="graph0" class="graph" transform="scale(1 1) rotate(0) translate(72 786.25)">
<title>AWS Serverless Data Lake ETL Pipeline</title>
<polygon fill="#0d1117" stroke="none" points="-72,72 -72,-786.25 2494.35,-786.25 2494.35,72 -72,72"/>
<text xml:space="preserve" text-anchor="middle" x="1211.18" y="-8.1" font-family="Helvetica Neue" font-size="17.00" fill="#e6edf3">AWS Serverless Data Lake ETL Pipeline</text>
<g id="clust1" class="cluster">
<title>cluster_Phase 1 — Raw Ingestion</title>
<path fill="#e5f5fd" stroke="#aeb6be" d="M405.75,-475.25C405.75,-475.25 830.35,-475.25 830.35,-475.25 836.35,-475.25 842.35,-481.25 842.35,-487.25 842.35,-487.25 842.35,-694.25 842.35,-694.25 842.35,-700.25 836.35,-706.25 830.35,-706.25 830.35,-706.25 405.75,-706.25 405.75,-706.25 399.75,-706.25 393.75,-700.25 393.75,-694.25 393.75,-694.25 393.75,-487.25 393.75,-487.25 393.75,-481.25 399.75,-475.25 405.75,-475.25"/>
<text xml:space="preserve" text-anchor="middle" x="471.12" y="-690.85" font-family="Sans-Serif" font-size="12.00" fill="#e6edf3">Phase 1 — Raw Ingestion</text>
</g>
<g id="clust2" class="cluster">
<title>cluster_Phase 2 — Serverless ETL</title>
<path fill="#e5f5fd" stroke="#aeb6be" d="M1067.85,-217.25C1067.85,-217.25 1480.45,-217.25 1480.45,-217.25 1486.45,-217.25 1492.45,-223.25 1492.45,-229.25 1492.45,-229.25 1492.45,-408.25 1492.45,-408.25 1492.45,-414.25 1486.45,-420.25 1480.45,-420.25 1480.45,-420.25 1067.85,-420.25 1067.85,-420.25 1061.85,-420.25 1055.85,-414.25 1055.85,-408.25 1055.85,-408.25 1055.85,-229.25 1055.85,-229.25 1055.85,-223.25 1061.85,-217.25 1067.85,-217.25"/>
<text xml:space="preserve" text-anchor="middle" x="1136.23" y="-404.85" font-family="Sans-Serif" font-size="12.00" fill="#e6edf3">Phase 2 — Serverless ETL</text>
</g>
<g id="clust3" class="cluster">
<title>cluster_Phase 3 — Catalog &amp; Query</title>
<path fill="#e5f5fd" stroke="#aeb6be" d="M1711.95,-151.25C1711.95,-151.25 2402.35,-151.25 2402.35,-151.25 2408.35,-151.25 2414.35,-157.25 2414.35,-163.25 2414.35,-163.25 2414.35,-342.25 2414.35,-342.25 2414.35,-348.25 2408.35,-354.25 2402.35,-354.25 2402.35,-354.25 1711.95,-354.25 1711.95,-354.25 1705.95,-354.25 1699.95,-348.25 1699.95,-342.25 1699.95,-342.25 1699.95,-163.25 1699.95,-163.25 1699.95,-157.25 1705.95,-151.25 1711.95,-151.25"/>
<text xml:space="preserve" text-anchor="middle" x="1783.33" y="-338.85" font-family="Sans-Serif" font-size="12.00" fill="#e6edf3">Phase 3 — Catalog &amp; Query</text>
</g>
<g id="clust4" class="cluster">
<title>cluster_Phase 4 — Governance &amp; Security</title>
<path fill="#e5f5fd" stroke="#aeb6be" d="M12,-36.25C12,-36.25 189.25,-36.25 189.25,-36.25 195.25,-36.25 201.25,-42.25 201.25,-48.25 201.25,-48.25 201.25,-458.25 201.25,-458.25 201.25,-464.25 195.25,-470.25 189.25,-470.25 189.25,-470.25 12,-470.25 12,-470.25 6,-470.25 0,-464.25 0,-458.25 0,-458.25 0,-48.25 0,-48.25 0,-42.25 6,-36.25 12,-36.25"/>
<text xml:space="preserve" text-anchor="middle" x="100.62" y="-454.85" font-family="Sans-Serif" font-size="12.00" fill="#e6edf3">Phase 4 — Governance &amp; Security</text>
</g>
<!-- 657628cef6ae45ceab3d4674de99c57d -->
<g id="node1" class="node">
<title>657628cef6ae45ceab3d4674de99c57d</title>
<image xlink:href="/Users/subashyadav/.pyenv/versions/3.11.9/lib/python3.11/site-packages/resources/onprem/client/client.png" width="100.8px" height="100.8px" preserveAspectRatio="xMinYMin meet" x="49.725" y="-644.65"/>
<text xml:space="preserve" text-anchor="middle" x="100.12" y="-530.05" font-family="Helvetica Neue" font-size="12.00" fill="#e6edf3">Data Sources</text>
<text xml:space="preserve" text-anchor="middle" x="100.12" y="-515.05" font-family="Helvetica Neue" font-size="12.00" fill="#e6edf3">CSV · JSON · API</text>
</g>
<!-- cbc368eb03ae4c4a9cbfcb798ab88151 -->
<g id="node3" class="node">
<title>cbc368eb03ae4c4a9cbfcb798ab88151</title>
<image xlink:href="/Users/subashyadav/.pyenv/versions/3.11.9/lib/python3.11/site-packages/resources/aws/storage/simple-storage-service-s3.png" width="100.8px" height="100.8px" preserveAspectRatio="xMinYMin meet" x="401.75" y="-644.65"/>
<text xml:space="preserve" text-anchor="middle" x="452.15" y="-530.05" font-family="Helvetica Neue" font-size="12.00" fill="#e6edf3">S3 Raw Bucket</text>
<text xml:space="preserve" text-anchor="middle" x="452.15" y="-515.05" font-family="Helvetica Neue" font-size="12.00" fill="#e6edf3">Landing Zone</text>
</g>
<!-- 657628cef6ae45ceab3d4674de99c57d&#45;&gt;cbc368eb03ae4c4a9cbfcb798ab88151 -->
<g id="edge1" class="edge">
<title>657628cef6ae45ceab3d4674de99c57d&#45;&gt;cbc368eb03ae4c4a9cbfcb798ab88151</title>
<path fill="none" stroke="#ff9900" d="M150.19,-594.25C150.19,-594.25 390.46,-594.25 390.46,-594.25"/>
<polygon fill="#ff9900" stroke="#ff9900" points="390.46,-597.75 400.46,-594.25 390.46,-590.75 390.46,-597.75"/>
<text xml:space="preserve" text-anchor="middle" x="297.5" y="-595.4" font-family="Sans-Serif" font-size="13.00" fill="#2d3436">upload file</text>
</g>
<!-- fae313da50934e70b7b026fa4c1e1943 -->
<g id="node2" class="node">
<title>fae313da50934e70b7b026fa4c1e1943</title>
<image xlink:href="/Users/subashyadav/.pyenv/versions/3.11.9/lib/python3.11/site-packages/resources/aws/management/cloudwatch.png" width="100.8px" height="100.8px" preserveAspectRatio="xMinYMin meet" x="1383.65" y="-609.65"/>
<text xml:space="preserve" text-anchor="middle" x="1434.05" y="-495.05" font-family="Helvetica Neue" font-size="12.00" fill="#e6edf3">CloudWatch</text>
<text xml:space="preserve" text-anchor="middle" x="1434.05" y="-480.05" font-family="Helvetica Neue" font-size="12.00" fill="#e6edf3">Logs &amp; Metrics</text>
</g>
<!-- 2fdc1d1549914041a31352a414d9039d -->
<g id="node4" class="node">
<title>2fdc1d1549914041a31352a414d9039d</title>
<image xlink:href="/Users/subashyadav/.pyenv/versions/3.11.9/lib/python3.11/site-packages/resources/aws/compute/lambda.png" width="100.8px" height="100.8px" preserveAspectRatio="xMinYMin meet" x="733.55" y="-630.65"/>
<text xml:space="preserve" text-anchor="middle" x="783.95" y="-516.65" font-family="Helvetica Neue" font-size="12.00" fill="#e6edf3">Lambda</text>
<text xml:space="preserve" text-anchor="middle" x="783.95" y="-501.65" font-family="Helvetica Neue" font-size="12.00" fill="#e6edf3">Ingestion Trigger</text>
<text xml:space="preserve" text-anchor="middle" x="783.95" y="-486.65" font-family="Helvetica Neue" font-size="12.00" fill="#e6edf3">Python 3.12</text>
</g>
<!-- cbc368eb03ae4c4a9cbfcb798ab88151&#45;&gt;2fdc1d1549914041a31352a414d9039d -->
<g id="edge2" class="edge">
<title>cbc368eb03ae4c4a9cbfcb798ab88151&#45;&gt;2fdc1d1549914041a31352a414d9039d</title>
<path fill="none" stroke="#ff9900" d="M502.54,-594.25C502.54,-594.25 722.11,-594.25 722.11,-594.25"/>
<polygon fill="#ff9900" stroke="#ff9900" points="722.11,-597.75 732.11,-594.25 722.11,-590.75 722.11,-597.75"/>
<text xml:space="preserve" text-anchor="middle" x="618.05" y="-588.4" font-family="Sans-Serif" font-size="13.00" fill="#2d3436">ObjectCreated event</text>
</g>
<!-- 2fdc1d1549914041a31352a414d9039d&#45;&gt;fae313da50934e70b7b026fa4c1e1943 -->
<g id="edge8" class="edge">
<title>2fdc1d1549914041a31352a414d9039d&#45;&gt;fae313da50934e70b7b026fa4c1e1943</title>
<path fill="none" stroke="#555555" stroke-dasharray="5,2" d="M834.15,-589.05C834.15,-589.05 1372.49,-589.05 1372.49,-589.05"/>
<polygon fill="#555555" stroke="#555555" points="1372.49,-592.55 1382.49,-589.05 1372.49,-585.55 1372.49,-592.55"/>
<text xml:space="preserve" text-anchor="middle" x="1114.25" y="-570.4" font-family="Sans-Serif" font-size="13.00" fill="#2d3436">logs</text>
</g>
<!-- d0fdc5d19d95485185aa5b0afbad0d68 -->
<g id="node5" class="node">
<title>d0fdc5d19d95485185aa5b0afbad0d68</title>
<image xlink:href="/Users/subashyadav/.pyenv/versions/3.11.9/lib/python3.11/site-packages/resources/aws/analytics/glue.png" width="100.8px" height="100.8px" preserveAspectRatio="xMinYMin meet" x="1063.85" y="-358.65"/>
<text xml:space="preserve" text-anchor="middle" x="1114.25" y="-244.05" font-family="Helvetica Neue" font-size="12.00" fill="#e6edf3">Glue ETL Job</text>
<text xml:space="preserve" text-anchor="middle" x="1114.25" y="-229.05" font-family="Helvetica Neue" font-size="12.00" fill="#e6edf3">PySpark · Glue 4.0</text>
</g>
<!-- 2fdc1d1549914041a31352a414d9039d&#45;&gt;d0fdc5d19d95485185aa5b0afbad0d68 -->
<g id="edge3" class="edge">
<title>2fdc1d1549914041a31352a414d9039d&#45;&gt;d0fdc5d19d95485185aa5b0afbad0d68</title>
<path fill="none" stroke="#ff9900" d="M784.35,-483.34C784.35,-421.36 784.35,-352.52 784.35,-352.52 784.35,-352.52 1052.63,-352.52 1052.63,-352.52"/>
<polygon fill="#ff9900" stroke="#ff9900" points="1052.63,-356.02 1062.63,-352.52 1052.63,-349.02 1052.63,-356.02"/>
<text xml:space="preserve" text-anchor="middle" x="949.1" y="-445.4" font-family="Sans-Serif" font-size="13.00" fill="#2d3436">StartJobRun (boto3)</text>
</g>
<!-- d0fdc5d19d95485185aa5b0afbad0d68&#45;&gt;fae313da50934e70b7b026fa4c1e1943 -->
<g id="edge9" class="edge">
<title>d0fdc5d19d95485185aa5b0afbad0d68&#45;&gt;fae313da50934e70b7b026fa4c1e1943</title>
<path fill="none" stroke="#555555" stroke-dasharray="5,2" d="M1114.35,-390.81C1114.35,-456.01 1114.35,-536.05 1114.35,-536.05 1114.35,-536.05 1372.23,-536.05 1372.23,-536.05"/>
<polygon fill="#555555" stroke="#555555" points="1372.23,-539.55 1382.23,-536.05 1372.23,-532.55 1372.23,-539.55"/>
<text xml:space="preserve" text-anchor="middle" x="1274.15" y="-457.4" font-family="Sans-Serif" font-size="13.00" fill="#2d3436">metrics + logs</text>
</g>
<!-- 91feeeecd7cf4dba9bce52d83332e10f -->
<g id="node6" class="node">
<title>91feeeecd7cf4dba9bce52d83332e10f</title>
<image xlink:href="/Users/subashyadav/.pyenv/versions/3.11.9/lib/python3.11/site-packages/resources/aws/storage/simple-storage-service-s3.png" width="100.8px" height="100.8px" preserveAspectRatio="xMinYMin meet" x="1383.65" y="-358.65"/>
<text xml:space="preserve" text-anchor="middle" x="1434.05" y="-244.05" font-family="Helvetica Neue" font-size="12.00" fill="#e6edf3">S3 Processed</text>
<text xml:space="preserve" text-anchor="middle" x="1434.05" y="-229.05" font-family="Helvetica Neue" font-size="12.00" fill="#e6edf3">Parquet · Partitioned</text>
</g>
<!-- d0fdc5d19d95485185aa5b0afbad0d68&#45;&gt;91feeeecd7cf4dba9bce52d83332e10f -->
<g id="edge4" class="edge">
<title>d0fdc5d19d95485185aa5b0afbad0d68&#45;&gt;91feeeecd7cf4dba9bce52d83332e10f</title>
<path fill="none" stroke="#ff9900" d="M1164.57,-308.25C1164.57,-308.25 1372.25,-308.25 1372.25,-308.25"/>
<polygon fill="#ff9900" stroke="#ff9900" points="1372.25,-311.75 1382.25,-308.25 1372.25,-304.75 1372.25,-311.75"/>
<text xml:space="preserve" text-anchor="middle" x="1274.15" y="-322.9" font-family="Sans-Serif" font-size="13.00" fill="#2d3436">write Parquet</text>
<text xml:space="preserve" text-anchor="middle" x="1274.15" y="-309.4" font-family="Sans-Serif" font-size="13.00" fill="#2d3436">partitioned by date</text>
</g>
<!-- 81d0a6c2f99145a9ba04f673040abd0d -->
<g id="node7" class="node">
<title>81d0a6c2f99145a9ba04f673040abd0d</title>
<image xlink:href="/Users/subashyadav/.pyenv/versions/3.11.9/lib/python3.11/site-packages/resources/aws/analytics/glue.png" width="100.8px" height="100.8px" preserveAspectRatio="xMinYMin meet" x="1707.95" y="-292.65"/>
<text xml:space="preserve" text-anchor="middle" x="1758.35" y="-178.05" font-family="Helvetica Neue" font-size="12.00" fill="#e6edf3">Glue Crawler</text>
<text xml:space="preserve" text-anchor="middle" x="1758.35" y="-163.05" font-family="Helvetica Neue" font-size="12.00" fill="#e6edf3">Daily 06:00 UTC</text>
</g>
<!-- 91feeeecd7cf4dba9bce52d83332e10f&#45;&gt;81d0a6c2f99145a9ba04f673040abd0d -->
<g id="edge5" class="edge">
<title>91feeeecd7cf4dba9bce52d83332e10f&#45;&gt;81d0a6c2f99145a9ba04f673040abd0d</title>
<path fill="none" stroke="#ff9900" d="M1484.37,-275.25C1484.37,-275.25 1696.67,-275.25 1696.67,-275.25"/>
<polygon fill="#ff9900" stroke="#ff9900" points="1696.67,-278.75 1706.67,-275.25 1696.67,-271.75 1696.67,-278.75"/>
<text xml:space="preserve" text-anchor="middle" x="1596.2" y="-276.4" font-family="Sans-Serif" font-size="13.00" fill="#2d3436">scan new partitions</text>
</g>
<!-- 8328b012f95243ae96f402a1cf646a37 -->
<g id="node8" class="node">
<title>8328b012f95243ae96f402a1cf646a37</title>
<image xlink:href="/Users/subashyadav/.pyenv/versions/3.11.9/lib/python3.11/site-packages/resources/aws/analytics/glue.png" width="100.8px" height="100.8px" preserveAspectRatio="xMinYMin meet" x="2008.25" y="-292.65"/>
<text xml:space="preserve" text-anchor="middle" x="2058.65" y="-178.05" font-family="Helvetica Neue" font-size="12.00" fill="#e6edf3">Glue Data Catalog</text>
<text xml:space="preserve" text-anchor="middle" x="2058.65" y="-163.05" font-family="Helvetica Neue" font-size="12.00" fill="#e6edf3">Schema · Partitions</text>
</g>
<!-- 81d0a6c2f99145a9ba04f673040abd0d&#45;&gt;8328b012f95243ae96f402a1cf646a37 -->
<g id="edge6" class="edge">
<title>81d0a6c2f99145a9ba04f673040abd0d&#45;&gt;8328b012f95243ae96f402a1cf646a37</title>
<path fill="none" stroke="#ff9900" d="M1808.61,-242.25C1808.61,-242.25 1997.21,-242.25 1997.21,-242.25"/>
<polygon fill="#ff9900" stroke="#ff9900" points="1997.21,-245.75 2007.21,-242.25 1997.21,-238.75 1997.21,-245.75"/>
<text xml:space="preserve" text-anchor="middle" x="1908.5" y="-243.4" font-family="Sans-Serif" font-size="13.00" fill="#2d3436">update schema</text>
</g>
<!-- d1fcaa487fba4dab85617f28882a7f30 -->
<g id="node9" class="node">
<title>d1fcaa487fba4dab85617f28882a7f30</title>
<image xlink:href="/Users/subashyadav/.pyenv/versions/3.11.9/lib/python3.11/site-packages/resources/aws/analytics/athena.png" width="100.8px" height="100.8px" preserveAspectRatio="xMinYMin meet" x="2305.55" y="-292.65"/>
<text xml:space="preserve" text-anchor="middle" x="2355.95" y="-178.05" font-family="Helvetica Neue" font-size="12.00" fill="#e6edf3">Athena</text>
<text xml:space="preserve" text-anchor="middle" x="2355.95" y="-163.05" font-family="Helvetica Neue" font-size="12.00" fill="#e6edf3">Serverless SQL</text>
</g>
<!-- 8328b012f95243ae96f402a1cf646a37&#45;&gt;d1fcaa487fba4dab85617f28882a7f30 -->
<g id="edge7" class="edge">
<title>8328b012f95243ae96f402a1cf646a37&#45;&gt;d1fcaa487fba4dab85617f28882a7f30</title>
<path fill="none" stroke="#ff9900" d="M2108.75,-242.25C2108.75,-242.25 2294.13,-242.25 2294.13,-242.25"/>
<polygon fill="#ff9900" stroke="#ff9900" points="2294.13,-245.75 2304.13,-242.25 2294.13,-238.75 2294.13,-245.75"/>
<text xml:space="preserve" text-anchor="middle" x="2207.3" y="-243.4" font-family="Sans-Serif" font-size="13.00" fill="#2d3436">table metadata</text>
</g>
<!-- 029772d4a3ad4ababa26085a1a216d81 -->
<g id="node10" class="node">
<title>029772d4a3ad4ababa26085a1a216d81</title>
<image xlink:href="/Users/subashyadav/.pyenv/versions/3.11.9/lib/python3.11/site-packages/resources/aws/analytics/lake-formation.png" width="100.8px" height="100.8px" preserveAspectRatio="xMinYMin meet" x="49.725" y="-177.65"/>
<text xml:space="preserve" text-anchor="middle" x="100.12" y="-63.05" font-family="Helvetica Neue" font-size="12.00" fill="#e6edf3">Lake Formation</text>
<text xml:space="preserve" text-anchor="middle" x="100.12" y="-48.05" font-family="Helvetica Neue" font-size="12.00" fill="#e6edf3">Fine&#45;grained Access</text>
</g>
<!-- 029772d4a3ad4ababa26085a1a216d81&#45;&gt;cbc368eb03ae4c4a9cbfcb798ab88151 -->
<g id="edge10" class="edge">
<title>029772d4a3ad4ababa26085a1a216d81&#45;&gt;cbc368eb03ae4c4a9cbfcb798ab88151</title>
<path fill="none" stroke="#1a9c3e" stroke-dasharray="5,2" d="M150.22,-193.18C247.46,-193.18 452.35,-193.18 452.35,-193.18 452.35,-193.18 452.35,-500.12 452.35,-500.12"/>
<polygon fill="#1a9c3e" stroke="#1a9c3e" points="448.85,-500.12 452.35,-510.12 455.85,-500.12 448.85,-500.12"/>
<text xml:space="preserve" text-anchor="middle" x="297.5" y="-362.4" font-family="Sans-Serif" font-size="13.00" fill="#2d3436">manages access</text>
</g>
<!-- 029772d4a3ad4ababa26085a1a216d81&#45;&gt;91feeeecd7cf4dba9bce52d83332e10f -->
<g id="edge11" class="edge">
<title>029772d4a3ad4ababa26085a1a216d81&#45;&gt;91feeeecd7cf4dba9bce52d83332e10f</title>
<path fill="none" stroke="#1a9c3e" stroke-dasharray="5,2" d="M150.4,-176.32C393.36,-176.32 1434.35,-176.32 1434.35,-176.32 1434.35,-176.32 1434.35,-214.31 1434.35,-214.31"/>
<polygon fill="#1a9c3e" stroke="#1a9c3e" points="1430.85,-214.31 1434.35,-224.31 1437.85,-214.31 1430.85,-214.31"/>
</g>
<!-- 029772d4a3ad4ababa26085a1a216d81&#45;&gt;8328b012f95243ae96f402a1cf646a37 -->
<g id="edge12" class="edge">
<title>029772d4a3ad4ababa26085a1a216d81&#45;&gt;8328b012f95243ae96f402a1cf646a37</title>
<path fill="none" stroke="#1a9c3e" stroke-dasharray="5,2" d="M150.5,-101.95C457.01,-101.95 2058.35,-101.95 2058.35,-101.95 2058.35,-101.95 2058.35,-148.31 2058.35,-148.31"/>
<polygon fill="#1a9c3e" stroke="#1a9c3e" points="2054.85,-148.31 2058.35,-158.31 2061.85,-148.31 2054.85,-148.31"/>
</g>
<!-- 6289e2ac6f0c4848917cfecd67702aaa -->
<g id="node11" class="node">
<title>6289e2ac6f0c4848917cfecd67702aaa</title>
<image xlink:href="/Users/subashyadav/.pyenv/versions/3.11.9/lib/python3.11/site-packages/resources/aws/security/identity-and-access-management-iam.png" width="100.8px" height="100.8px" preserveAspectRatio="xMinYMin meet" x="49.725" y="-408.65"/>
<text xml:space="preserve" text-anchor="middle" x="100.12" y="-294.05" font-family="Helvetica Neue" font-size="12.00" fill="#e6edf3">IAM</text>
<text xml:space="preserve" text-anchor="middle" x="100.12" y="-279.05" font-family="Helvetica Neue" font-size="12.00" fill="#e6edf3">Roles &amp; Policies</text>
</g>
<!-- 6289e2ac6f0c4848917cfecd67702aaa&#45;&gt;2fdc1d1549914041a31352a414d9039d -->
<g id="edge13" class="edge">
<title>6289e2ac6f0c4848917cfecd67702aaa&#45;&gt;2fdc1d1549914041a31352a414d9039d</title>
<path fill="none" stroke="#666666" stroke-dasharray="5,2" d="M100.35,-440.71C100.35,-470.64 100.35,-497.25 100.35,-497.25 100.35,-497.25 722.17,-497.25 722.17,-497.25"/>
<polygon fill="#666666" stroke="#666666" points="722.17,-500.75 732.17,-497.25 722.17,-493.75 722.17,-500.75"/>
</g>
<!-- 6289e2ac6f0c4848917cfecd67702aaa&#45;&gt;d0fdc5d19d95485185aa5b0afbad0d68 -->
<g id="edge14" class="edge">
<title>6289e2ac6f0c4848917cfecd67702aaa&#45;&gt;d0fdc5d19d95485185aa5b0afbad0d68</title>
<path fill="none" stroke="#666666" stroke-dasharray="5,2" d="M150.42,-313.98C150.42,-313.98 1052.44,-313.98 1052.44,-313.98"/>
<polygon fill="#666666" stroke="#666666" points="1052.44,-317.48 1062.44,-313.98 1052.44,-310.48 1052.44,-317.48"/>
</g>
</g>
</svg>
